<svg width="64" height="64" viewBox="0 0 64 64" fill="none" xmlns="http://www.w3.org/2000/svg">
<path fill-rule="evenodd" clip-rule="evenodd" d="M53.3489 21C51.7168 21 50.3937 22.3231 50.3937 23.9552V25.4831C50.3937 26.1444 50.1329 26.7017 49.7661 27.0432C49.415 27.37 48.9511 27.5212 48.4068 27.3852C46.5908 26.9314 44.2451 26.0083 41.6956 24.3075C39.0717 22.557 35.3509 22.5354 33.0557 24.9945L32.9541 25.1034C28.7352 29.3513 22.5852 30.7438 17.0119 32.0057C16.5614 32.1078 16.1146 32.2089 15.6729 32.3107C12.8051 32.9713 10.0694 33.6788 8.14776 34.9246C7.16271 35.5632 6.3441 36.3712 5.83301 37.4277C5.3283 38.471 5.16322 39.6745 5.33689 41.0491V44.1114C5.33689 46.1872 6.42985 48.1097 8.2136 49.1714C9.12466 49.7137 10.1652 50 11.2255 50H55.1484C58.3802 50 61 47.3802 61 44.1484V42.8407C61 41.0171 59.9258 39.4445 58.3757 38.721C58.5478 38.5008 58.7178 38.2641 58.8791 38.0136C59.4604 37.1106 59.9875 35.9358 59.9875 34.6562C59.9875 34.0793 59.8499 33.3589 59.6703 32.6207C59.486 31.8631 59.2355 31.0024 58.9704 30.1177C58.8934 29.8605 58.8151 29.6014 58.7367 29.3415C58.2671 27.7861 57.7894 26.2041 57.5095 24.8587C57.3173 23.9356 56.7723 23.0039 56.0831 22.302C55.4041 21.6106 54.4408 21 53.3489 21ZM7.33689 44.1114V42.3213C7.46925 42.3479 7.60452 42.3731 7.74163 42.3969C8.25745 42.4865 8.84978 42.5658 9.5 42.6362V45.5H11.5V42.8146C12.6253 42.8976 13.8586 42.9646 15.1456 43.0188V48H11.2255C10.5254 48 9.83819 47.811 9.23655 47.4529C8.05864 46.7517 7.33689 45.4822 7.33689 44.1114ZM17.1456 48V43.0919C18.5548 43.1364 19.9975 43.1683 21.4105 43.1913V48H17.1456ZM23.4105 48V43.2184C24.9337 43.2353 26.3842 43.2431 27.6754 43.2468V48H23.4105ZM29.6754 48V43.2489C30.4854 43.2345 31.284 43.0558 32.0231 42.7242L36.6513 40.6474C37.1663 40.4163 37.7244 40.2969 38.2889 40.2969H40.2053V44.5H42.2053V40.2969H46.4702V48H42.2053V46.5742H40.2053V48H35.9403V43.5H33.9403V48H29.6754ZM48.4702 48V40.2969H52.7351V48H48.4702ZM54.7351 48V40.2969H56.4562C57.8611 40.2969 59 41.4358 59 42.8407V44.1484C59 46.2756 57.2756 48 55.1484 48H54.7351ZM8.08409 40.4264C7.75217 40.3687 7.48435 40.3108 7.27485 40.2561C7.24155 39.4534 7.38183 38.8187 7.6334 38.2986C7.94611 37.6522 8.47205 37.0979 9.23577 36.6028C10.8117 35.581 13.1905 34.9349 16.1219 34.2596C16.3555 34.2058 16.5921 34.152 16.8316 34.0978L22.6952 38.129C24.0853 39.0847 25.9615 37.996 25.8214 36.3148L25.6484 34.2395L30.2564 36.679C31.8694 37.533 33.6895 35.9575 33.0757 34.2388L32.1024 31.5137L34.9555 32.3528C36.9433 32.9375 38.3992 30.485 36.9341 29.0199L34.3998 26.4856L34.5178 26.3592C36.0066 24.7641 38.596 24.6439 40.5856 25.9712C43.3275 27.8004 45.8849 28.8165 47.922 29.3255C49.1601 29.6349 50.3108 29.2685 51.1288 28.5071C51.931 27.7604 52.3937 26.6589 52.3937 25.4831V23.9552C52.3937 23.4277 52.8213 23 53.3489 23C53.6967 23 54.1775 23.2159 54.656 23.7033C55.1243 24.1802 55.4502 24.7798 55.5514 25.2662C55.8511 26.7061 56.3591 28.3878 56.8266 29.9351C56.9041 30.1916 56.9805 30.4444 57.0546 30.6917C57.3193 31.5751 57.5563 32.3916 57.727 33.0934C57.9025 33.8147 57.9875 34.336 57.9875 34.6562C57.9875 35.4017 57.6708 36.1957 57.1974 36.931C56.8317 37.4991 56.4082 37.9763 56.0737 38.2969H38.2889C37.4422 38.2969 36.605 38.4761 35.8325 38.8227L31.2043 40.8994C30.6892 41.1306 30.1313 41.2501 29.5674 41.2498C29.2836 41.2496 28.9863 41.2494 28.6769 41.2489C26.8969 41.2463 24.7186 41.2373 22.4241 41.2061C20.3668 41.1782 18.2186 41.1326 16.1822 41.058C14.1273 40.9827 12.1952 40.8783 10.5895 40.734C9.60439 40.6455 8.75611 40.5432 8.08409 40.4264ZM32.9147 27.8289C33.4237 27.4167 33.9149 26.975 34.3849 26.5009L34.3955 26.4902L34.3998 26.4856L33.7071 25.7929L32.2929 27.2071L32.9147 27.8289ZM32.9147 27.8289L35.5199 30.4341L31.1005 29.1343C31.7251 28.7348 32.3316 28.3012 32.9147 27.8289ZM29.468 30.0835C28.1498 30.7802 26.7755 31.3528 25.3876 31.8384L31.1922 34.9114L29.468 30.0835ZM23.4923 32.4497C22.1377 32.853 20.7887 33.1899 19.4846 33.4947L23.8283 36.4809L23.4923 32.4497Z" fill="black"/>
<path d="M34.3849 26.5009L34.3955 26.4902L34.3998 26.4856L33.7071 25.7929L32.2929 27.2071L32.9147 27.8289C33.4237 27.4167 33.9149 26.975 34.3849 26.5009Z" fill="black"/>
</svg>
