<?xml version="1.0" encoding="UTF-8"?>
<!DOCTYPE svg PUBLIC "-//W3C//DTD SVG 1.1//EN" "http://www.w3.org/Graphics/SVG/1.1/DTD/svg11.dtd">
<!-- Creator: CorelDRAW -->
<svg xmlns="http://www.w3.org/2000/svg" xml:space="preserve" width="103.632mm" height="106.362mm" version="1.1" style="shape-rendering:geometricPrecision; text-rendering:geometricPrecision; image-rendering:optimizeQuality; fill-rule:evenodd; clip-rule:evenodd"
viewBox="0 0 10363.18 10636.2"
 xmlns:xlink="http://www.w3.org/1999/xlink"
 xmlns:xodm="http://www.corel.com/coreldraw/odm/2003">
 <defs>
  <style type="text/css">
   <![CDATA[
    .fil0 {fill:#8D91AA;fill-rule:nonzero}
   ]]>
  </style>
 </defs>
 <g id="Слой_x0020_1">
  <metadata id="CorelCorpID_0Corel-Layer"/>
  <g id="_2435740607952">
   <g id="_1644529239456">
    <g id="_1641727084480">
     <g id="_1" data-name="1">
      <path class="fil0" d="M9043.69 7091.32l-5427.36 0c-0.19,0 -0.44,0 -0.63,0 -185.24,0 -345.91,-128.21 -387,-308.79l-913.85 -3981.39c-6.69,-29.11 -10.08,-59 -10.08,-88.9 0,-219.15 177.73,-396.88 396.88,-396.88 0,0 0.05,0 0.05,0l7256.65 0.01c0.24,-0.01 0.58,-0.01 0.82,-0.01 219.15,0 396.88,177.73 396.88,396.88 0,29.9 -3.39,59.79 -10.08,88.91l-915.47 3981.4c-41.06,180.51 -201.64,308.72 -386.82,308.77l0.01 0zm-5111.45 -793.74l4795.53 0 732.1 -3187.67 -6260 0 732.37 3187.67z"/>
      <path class="fil0" d="M4392.88 10636.73c-839.78,-0.01 -1520.81,-681.05 -1520.81,-1520.83 0,-839.79 681.04,-1520.82 1520.82,-1520.82 839.79,0 1520.79,681.04 1520.79,1520.82 -0.75,839.63 -681.17,1520.07 -1520.71,1520.81l-0.09 0.02zm0 -2247.63c-401.48,-0.01 -727.07,325.58 -727.07,727.07 0,401.49 325.59,727.08 727.08,727.08 401.49,0 727.08,-325.59 727.08,-727.08 0,0 0,-0.27 0,-0.27 -0.37,-401.24 -325.84,-726.53 -727.08,-726.8l-0.01 0z"/>
      <path class="fil0" d="M8266.88 10636.73c-839.79,-0.01 -1520.82,-681.05 -1520.82,-1520.83 0,-839.79 681.04,-1520.82 1520.82,-1520.82 839.79,0 1520.82,681.04 1520.82,1520.82 -0.75,839.63 -681.2,1520.07 -1520.74,1520.81l-0.08 0.02zm0 -2247.63c-401.49,-0.01 -727.08,325.58 -727.08,727.07 0,401.49 325.59,727.08 727.08,727.08 401.49,0 727.08,-325.59 727.08,-727.08 0,0 0,-0.27 0,-0.27 -0.37,-401.24 -325.84,-726.53 -727.08,-726.8z"/>
      <path class="fil0" d="M2701.67 3109.12c-170.84,0 -322.5,-109.41 -376.48,-271.48l-680.27 -2043.35 -1255.18 0c-219.14,0 -396.87,-177.73 -396.87,-396.88 0,-219.15 177.73,-396.88 396.88,-396.88l1542.5 0.01c170.86,-0.01 322.52,109.4 376.5,271.47l770.73 2314.83c13.43,40.36 20.36,82.81 20.36,125.4 0,219.15 -177.68,396.88 -396.83,396.88l-1.35 0 0.01 0z"/>
     </g>
    </g>
   </g>
  </g>
 </g>
</svg>
